<svg width="800" height="800" viewBox="0 0 800 800" fill="none" xmlns="http://www.w3.org/2000/svg">
<path d="M400.432 761.744C590.294 761.744 744.208 672.882 744.208 563.264C744.208 453.647 590.294 364.784 400.432 364.784C210.57 364.784 56.656 453.647 56.656 563.264C56.656 672.882 210.57 761.744 400.432 761.744Z" fill="#F5F5F5"/>
<path d="M584 714.864C621.953 714.864 652.72 695.573 652.72 671.776C652.72 647.979 621.953 628.688 584 628.688C546.047 628.688 515.28 647.979 515.28 671.776C515.28 695.573 546.047 714.864 584 714.864Z" fill="#E6E6E6"/>
<path d="M708.8 517.248L694.544 509.248C694.544 509.248 693.2 483.216 695.248 462.448C698.112 433.264 716.96 398.128 739.456 406.448C761.952 414.768 729.136 444.416 721.856 469.184C714.576 493.952 708.8 517.248 708.8 517.248Z" fill="#37474F"/>
<path d="M702.16 514.192C702.26 514.19 702.359 514.168 702.45 514.127C702.542 514.086 702.624 514.028 702.693 513.955C702.762 513.882 702.815 513.796 702.85 513.702C702.885 513.608 702.9 513.508 702.896 513.408C700.688 448.56 732.976 415.92 733.296 415.6C733.438 415.46 733.519 415.269 733.52 415.07C733.522 414.87 733.444 414.678 733.304 414.536C733.164 414.394 732.973 414.313 732.774 414.312C732.574 414.31 732.382 414.388 732.24 414.528C731.904 414.848 699.152 447.952 701.376 513.472C701.38 513.571 701.404 513.668 701.445 513.757C701.487 513.847 701.546 513.928 701.619 513.995C701.692 514.061 701.777 514.113 701.87 514.147C701.963 514.181 702.061 514.196 702.16 514.192Z" fill="white"/>
<path d="M716.624 521.76L707.712 516.608C707.712 516.608 706.192 498.208 715.216 475.84C723.072 456.368 742.576 440.224 752.368 443.616C762.16 447.008 761.968 453.968 757.168 461.216C752.368 468.464 723.296 485.936 716.624 521.76Z" fill="#455A64"/>
<path d="M712 519.792C712.1 519.794 712.2 519.776 712.293 519.739C712.386 519.703 712.471 519.648 712.542 519.577C712.614 519.507 712.671 519.424 712.709 519.332C712.748 519.239 712.768 519.14 712.768 519.04C712.592 478.032 751.088 450.24 751.488 450.032C751.649 449.913 751.757 449.737 751.79 449.54C751.823 449.342 751.778 449.14 751.664 448.976C751.607 448.895 751.534 448.825 751.449 448.772C751.365 448.719 751.271 448.684 751.173 448.667C751.075 448.651 750.974 448.654 750.877 448.677C750.78 448.7 750.689 448.742 750.608 448.8C750.208 449.072 711.072 477.248 711.248 519.04C711.248 519.139 711.267 519.237 711.305 519.328C711.343 519.419 711.398 519.502 711.468 519.572C711.538 519.642 711.621 519.697 711.712 519.735C711.803 519.773 711.901 519.792 712 519.792Z" fill="white"/>
<path d="M452.704 397.84L443.44 392.544C443.031 392.237 442.707 391.83 442.499 391.362C442.292 390.895 442.208 390.381 442.256 389.872V328.144C442.348 326.489 442.902 324.892 443.856 323.536L453.072 328.848C452.149 330.201 451.628 331.787 451.568 333.424V395.2C451.51 395.701 451.584 396.209 451.783 396.672C451.982 397.135 452.3 397.538 452.704 397.84Z" fill="#FF8500"/>
<path opacity="0.55" d="M452.704 397.84L443.44 392.544C443.031 392.237 442.707 391.83 442.499 391.362C442.292 390.895 442.208 390.381 442.256 389.872V328.144C442.348 326.489 442.902 324.892 443.856 323.536L453.072 328.848C452.149 330.201 451.628 331.787 451.568 333.424V395.2C451.51 395.701 451.584 396.209 451.783 396.672C451.982 397.135 452.3 397.538 452.704 397.84Z" fill="white"/>
<path d="M455.648 326.16L584.896 251.552C587.216 250.208 589.088 251.296 589.088 253.968V315.824C589.011 317.277 588.591 318.692 587.863 319.952C587.134 321.211 586.117 322.281 584.896 323.072L455.648 397.568C453.344 398.896 451.456 397.808 451.456 395.136V333.424C451.538 331.97 451.96 330.555 452.688 329.293C453.416 328.032 454.43 326.959 455.648 326.16Z" fill="#FF8500"/>
<path opacity="0.7" d="M455.648 326.16L584.896 251.552C587.216 250.208 589.088 251.296 589.088 253.968V315.824C589.011 317.277 588.591 318.692 587.863 319.952C587.134 321.211 586.117 322.281 584.896 323.072L455.648 397.568C453.344 398.896 451.456 397.808 451.456 395.136V333.424C451.538 331.97 451.96 330.555 452.688 329.293C453.416 328.032 454.43 326.959 455.648 326.16Z" fill="white"/>
<path d="M578.592 245.968L587.712 251.168C587.248 250.995 586.749 250.939 586.258 251.003C585.768 251.067 585.3 251.25 584.896 251.536L455.648 326.16C454.556 326.836 453.636 327.756 452.96 328.848L443.744 323.536C444.401 322.454 445.306 321.544 446.384 320.88L575.632 246.256C576.196 245.908 576.842 245.715 577.504 245.696C577.884 245.693 578.258 245.787 578.592 245.968Z" fill="#FF8500"/>
<path opacity="0.85" d="M578.592 245.968L587.712 251.168C587.248 250.995 586.749 250.939 586.258 251.003C585.768 251.067 585.3 251.25 584.896 251.536L455.648 326.16C454.556 326.836 453.636 327.756 452.96 328.848L443.744 323.536C444.401 322.454 445.306 321.544 446.384 320.88L575.632 246.256C576.196 245.908 576.842 245.715 577.504 245.696C577.884 245.693 578.258 245.787 578.592 245.968Z" fill="white"/>
<path d="M465.76 331.872L574.784 268.8C575.904 268.16 576.8 268.608 576.8 269.808C576.751 270.485 576.543 271.141 576.193 271.722C575.843 272.303 575.36 272.793 574.784 273.152L465.76 336.192C464.656 336.832 463.744 336.384 463.744 335.184C463.799 334.513 464.01 333.864 464.36 333.289C464.71 332.714 465.189 332.229 465.76 331.872Z" fill="#FF8500"/>
<path d="M465.76 376L574.784 312.96C575.904 312.32 576.8 312.768 576.8 313.984C576.751 314.659 576.543 315.312 576.193 315.891C575.842 316.469 575.36 316.957 574.784 317.312L465.76 380.288C464.656 380.928 463.744 380.464 463.744 379.264C463.808 378.602 464.023 377.964 464.373 377.398C464.722 376.832 465.197 376.354 465.76 376Z" fill="#FF8500"/>
<path d="M465.76 353.904L574.784 290.848C575.904 290.208 576.8 290.672 576.8 291.872C576.749 292.548 576.54 293.203 576.19 293.784C575.84 294.365 575.358 294.855 574.784 295.216L465.76 358.256C464.656 358.896 463.744 358.432 463.744 357.232C463.796 356.558 464.006 355.906 464.356 355.328C464.706 354.75 465.187 354.262 465.76 353.904Z" fill="#FF8500"/>
<path d="M465.76 364.912L574.784 301.872C575.904 301.232 576.8 301.68 576.8 302.88C576.751 303.557 576.543 304.213 576.193 304.794C575.843 305.375 575.36 305.865 574.784 306.224L465.76 369.264C464.656 369.904 463.744 369.456 463.744 368.256C463.794 367.579 464.002 366.924 464.353 366.343C464.703 365.762 465.185 365.272 465.76 364.912Z" fill="#FF8500"/>
<path d="M465.76 342.88L574.784 279.84C575.904 279.2 576.8 279.648 576.8 280.864C576.751 281.539 576.543 282.192 576.193 282.771C575.842 283.349 575.36 283.837 574.784 284.192L465.76 347.2C464.656 347.84 463.744 347.376 463.744 346.176C463.804 345.508 464.016 344.864 464.366 344.292C464.716 343.72 465.193 343.237 465.76 342.88Z" fill="#FF8500"/>
<path d="M452 303.632L443.2 298.624C442.789 298.318 442.465 297.911 442.257 297.443C442.05 296.975 441.967 296.462 442.016 295.952V131.76C442.102 130.103 442.657 128.505 443.616 127.152L452.192 132.112C451.319 133.437 450.827 134.975 450.768 136.56V300.928C450.708 301.448 450.791 301.975 451.008 302.451C451.225 302.928 451.568 303.336 452 303.632Z" fill="#263238"/>
<path d="M586.4 54.128C585.624 54.0588 584.847 54.2502 584.192 54.672L454.944 129.296C453.813 130.004 452.864 130.969 452.176 132.112L443.584 127.152C444.252 126.079 445.155 125.171 446.224 124.496L575.472 49.888C576.033 49.5311 576.68 49.3322 577.344 49.312C577.724 49.3089 578.098 49.4025 578.432 49.584L586.4 54.128Z" fill="#37474F"/>
<path d="M454.944 129.296L584.192 54.688C586.512 53.344 588.384 54.432 588.384 57.104V221.616C588.307 223.069 587.887 224.484 587.159 225.744C586.43 227.003 585.413 228.073 584.192 228.864L454.96 303.36C452.64 304.688 450.752 303.6 450.752 300.928V136.56C450.834 135.106 451.256 133.691 451.984 132.429C452.712 131.168 453.726 130.095 454.944 129.296Z" fill="#455A64"/>
<path d="M462.112 134.656L578.112 67.68C580.192 66.48 581.872 67.456 581.872 69.856V217.6C581.802 218.905 581.425 220.174 580.771 221.306C580.118 222.438 579.207 223.399 578.112 224.112L462.112 290.96C460.032 292.16 458.352 291.184 458.352 288.784V141.168C458.422 139.863 458.799 138.594 459.453 137.462C460.106 136.33 461.017 135.369 462.112 134.656Z" fill="#F0F0F0"/>
<mask id="mask0_25_199" style="mask-type:luminance" maskUnits="userSpaceOnUse" x="458" y="67" width="124" height="225">
<path d="M462.112 134.656L578.112 67.68C580.192 66.48 581.872 67.456 581.872 69.856V217.6C581.802 218.905 581.425 220.174 580.771 221.306C580.118 222.438 579.207 223.399 578.112 224.112L462.112 290.96C460.032 292.16 458.352 291.184 458.352 288.784V141.168C458.422 139.863 458.799 138.594 459.453 137.462C460.106 136.33 461.017 135.369 462.112 134.656Z" fill="white"/>
</mask>
<g mask="url(#mask0_25_199)">
<path d="M558.544 195.2C556.507 191.641 553.27 188.922 549.413 187.529C545.556 186.137 541.329 186.162 537.488 187.6C537.488 187.6 536.816 199.968 543.152 217.728C543.152 217.728 570.752 257.952 576.256 261.696L583.888 236.384C583.888 236.384 563.744 203.344 558.544 195.2Z" fill="#B16668"/>
<path d="M490.912 203.792C484.4 206.272 485.376 213.392 485.584 219.712C485.696 223.6 486.336 230.192 486.752 239.232L488.608 268.336L488.192 331.472C509.36 338.688 536.288 332.336 558.88 307.232C558.88 307.232 557.616 226.432 557.616 213.168C557.616 212.56 557.616 211.968 557.616 211.36C556.816 193.216 547.808 185.456 537.52 187.632C534.224 188.336 527.088 190.608 522.368 192.08L509.408 196.272C509.408 196.272 497.408 201.312 490.912 203.792Z" fill="#FF8500"/>
<path opacity="0.2" d="M490.912 203.792C484.4 206.272 485.376 213.392 485.584 219.712C485.696 223.6 486.336 230.192 486.752 239.232L488.608 268.336L488.192 331.472C509.36 338.688 536.288 332.336 558.88 307.232C558.88 307.232 557.616 226.432 557.616 213.168C557.616 212.56 557.616 211.968 557.616 211.36C556.816 193.216 547.808 185.456 537.52 187.632C534.224 188.336 527.088 190.608 522.368 192.08L509.408 196.272C509.408 196.272 497.408 201.312 490.912 203.792Z" fill="black"/>
<path d="M539.936 140.928C539.936 135.088 540.848 127.424 546.784 124.624C549.792 123.2 554.08 122.608 556.944 124.464C559.808 126.32 561.632 128.944 561.12 132.592C560.619 135.316 559.256 137.806 557.232 139.696C556.882 139.966 556.62 140.333 556.48 140.752C556.426 141.09 556.454 141.435 556.56 141.76C557.328 145.36 557.28 149.488 554.832 152.24C553.99 153.176 552.925 153.885 551.737 154.302C550.548 154.718 549.274 154.829 548.032 154.624C546.636 154.294 545.334 153.65 544.225 152.74C543.116 151.831 542.229 150.68 541.632 149.376C540.412 146.732 539.831 143.838 539.936 140.928Z" fill="#263238"/>
<path d="M500.8 161.44C500.8 161.44 504.096 178.416 505.408 180.992C505.803 181.742 506.382 182.38 507.089 182.847C507.797 183.314 508.611 183.595 509.456 183.664L509.232 171.184L500.8 161.44Z" fill="#263238"/>
<path d="M504.848 134.768C504.848 134.768 501.792 135.52 501.648 135.6C500.239 136.126 498.973 136.975 497.952 138.08C497.159 138.923 496.581 139.945 496.269 141.06C495.957 142.174 495.92 143.348 496.16 144.48C496.673 146.129 497.605 147.618 498.864 148.8C497.895 149.788 497.138 150.965 496.64 152.256C496.152 153.561 496.152 154.999 496.64 156.304C496.981 157.063 497.422 157.774 497.952 158.416C499.12 159.904 500.496 161.36 502.512 161.136C503.984 160.976 505.472 160.736 506.944 160.544L504.848 134.768Z" fill="#263238"/>
<path d="M508.8 160.112C507.568 161.312 505.792 159.024 504.256 157.584C502.72 156.144 497.728 154.96 495.232 161.696C492.736 168.432 497.44 175.456 501.376 175.84C508.16 176.48 509.184 171.184 509.184 171.184L509.408 199.056C516.816 214.56 547.344 208.656 531.808 192.56V184C534.919 183.729 537.987 183.084 540.944 182.08C545.936 179.856 549.088 174.464 550.544 167.824C552.976 157.152 552.768 150.832 551.952 131.584C551.392 118.368 527.824 114.288 516.08 125.968C504.336 137.648 508.8 160.112 508.8 160.112Z" fill="#B16668"/>
<path d="M504.224 157.584C503.424 156.96 503.504 155.136 503.456 154.256C503.373 152.122 503.411 149.986 503.568 147.856C503.776 144.496 504.704 140.976 503.936 137.68C503.555 136.482 503.44 135.215 503.6 133.968C503.691 133.344 503.979 132.765 504.423 132.316C504.866 131.867 505.441 131.571 506.064 131.472C505.328 129.547 505.125 127.459 505.476 125.428C505.827 123.397 506.72 121.498 508.06 119.932C509.4 118.366 511.138 117.191 513.09 116.53C515.042 115.869 517.136 115.746 519.152 116.176C519.692 114.332 520.721 112.669 522.129 111.362C523.538 110.055 525.273 109.153 527.152 108.752C529.303 108.298 531.533 108.375 533.648 108.976C534.726 109.267 535.726 109.793 536.578 110.514C537.429 111.236 538.112 112.137 538.576 113.152C539.904 110.304 544.496 107.744 548.688 108.224C552.208 108.64 555.824 110.816 557.024 113.664C557.842 115.513 558.265 117.514 558.265 119.536C558.265 121.558 557.842 123.559 557.024 125.408C556.369 126.694 555.443 127.822 554.311 128.717C553.179 129.612 551.866 130.251 550.464 130.592C547.606 131.284 544.59 130.812 542.08 129.28C542.074 130.793 541.58 132.264 540.672 133.474C539.764 134.684 538.491 135.57 537.04 136C535.023 136.651 532.87 136.756 530.8 136.304C528.854 135.56 527.084 134.422 525.6 132.96C525.471 134.327 524.968 135.632 524.147 136.733C523.326 137.833 522.218 138.687 520.944 139.2C519.665 139.68 518.297 139.876 516.935 139.773C515.573 139.671 514.249 139.273 513.056 138.608C513.651 140.511 513.985 142.487 514.048 144.48C514.137 145.516 513.978 146.558 513.584 147.52C513.37 147.989 513.029 148.387 512.598 148.67C512.168 148.953 511.667 149.109 511.152 149.12C512.306 152.035 512.718 155.191 512.352 158.304C512.317 159.549 511.827 160.739 510.976 161.648C508.208 164.208 505.936 158.928 504.224 157.584Z" fill="#263238"/>
<path d="M504.864 136.352L497.344 133.712C498.416 130.944 500.96 129.296 503.04 130.016C505.12 130.736 505.92 133.584 504.864 136.352Z" fill="#263238"/>
<path d="M531.728 184C531.728 184 520.528 184.384 516.688 183.04C514.352 182.225 512.42 180.54 511.296 178.336C511.844 180.667 512.893 182.85 514.368 184.736C517.216 188.176 531.728 187.392 531.728 187.392V184Z" fill="#9A4A4D"/>
<path d="M528.848 153.744C528.845 154.442 528.629 155.123 528.229 155.695C527.829 156.267 527.263 156.703 526.608 156.944C525.376 157.28 524.368 156.336 524.368 154.864C524.373 154.166 524.59 153.487 524.99 152.915C525.39 152.344 525.954 151.907 526.608 151.664C527.84 151.328 528.848 152.272 528.848 153.744Z" fill="#263238"/>
<path d="M527.152 146.416L521.712 149.872C521.475 149.049 521.503 148.173 521.79 147.367C522.077 146.56 522.609 145.864 523.312 145.376C523.62 145.15 523.975 144.996 524.351 144.926C524.727 144.856 525.113 144.871 525.482 144.971C525.851 145.071 526.193 145.253 526.482 145.503C526.771 145.753 527 146.065 527.152 146.416Z" fill="#263238"/>
<path d="M530.72 168.832L535.808 169.664C535.665 170.475 535.239 171.209 534.606 171.736C533.974 172.263 533.175 172.549 532.352 172.544C530.944 172.32 530.208 170.656 530.72 168.832Z" fill="#9A4A4D"/>
<path d="M549.072 145.344L544.72 142.64C545.6 140.96 547.296 140.208 548.496 140.944C549.11 141.482 549.508 142.226 549.614 143.035C549.72 143.845 549.527 144.666 549.072 145.344Z" fill="#263238"/>
<path d="M547.936 149.248C547.935 149.944 547.721 150.624 547.324 151.195C546.926 151.767 546.364 152.204 545.712 152.448C544.48 152.784 543.472 151.84 543.472 150.368C543.479 149.671 543.697 148.992 544.097 148.421C544.496 147.85 545.059 147.413 545.712 147.168C546.944 146.832 547.936 147.76 547.936 149.248Z" fill="#263238"/>
<path d="M535.808 149.872L536.064 165.424L544.064 161.248L535.808 149.872Z" fill="#9A4A4D"/>
<path d="M486.864 336.96C487.228 341.16 488.442 345.243 490.432 348.96C492.637 352.418 495.332 355.539 498.432 358.224C498.763 358.478 499.004 358.831 499.12 359.232C499.232 360.064 498.288 360.64 497.52 360.832C495.771 361.092 493.985 360.742 492.464 359.84C491.324 359.173 490.275 358.361 489.344 357.424C489.024 357.136 487.04 355.728 487.04 355.408C487.668 358.778 488.847 362.021 490.528 365.008C492.182 367.579 493.673 370.25 494.992 373.008C495.744 374.816 496.096 377.152 494.704 378.528C494.115 379.026 493.42 379.382 492.672 379.568C490.138 380.282 487.46 380.312 484.911 379.654C482.362 378.996 480.032 377.675 478.16 375.824C476.519 374.04 475.149 372.023 474.096 369.84C473.456 368.639 472.879 367.405 472.368 366.144C471.516 363.944 470.858 361.674 470.4 359.36C469.168 353.808 468.704 348.16 467.856 342.592C465.337 324.859 464.331 306.944 464.848 289.04C467.728 229.744 471.776 209.696 490.944 203.792C496.368 207.824 498.8 225.088 493.088 240.48C490.253 257.673 488.394 275.013 487.52 292.416C487.168 300.64 485.84 317.216 486.224 325.44C486.4 329.12 486.4 332.8 486.864 336.96Z" fill="#B16668"/>
</g>
<path d="M102.192 600.08L92.928 594.784C92.5186 594.477 92.1948 594.07 91.9875 593.602C91.7803 593.135 91.6964 592.621 91.744 592.112V530.4C91.8359 528.745 92.3902 527.148 93.344 525.792L102.4 531.104C101.477 532.457 100.956 534.043 100.896 535.68V597.376C100.843 597.902 100.936 598.433 101.164 598.91C101.393 599.387 101.748 599.792 102.192 600.08Z" fill="#FF8500"/>
<path opacity="0.55" d="M102.192 600.08L92.928 594.784C92.5186 594.477 92.1948 594.07 91.9875 593.602C91.7803 593.135 91.6964 592.621 91.744 592.112V530.4C91.8359 528.745 92.3902 527.148 93.344 525.792L102.4 531.104C101.477 532.457 100.956 534.043 100.896 535.68V597.376C100.843 597.902 100.936 598.433 101.164 598.91C101.393 599.387 101.748 599.792 102.192 600.08Z" fill="white"/>
<path d="M105.136 528.416L234.384 453.792C236.688 452.448 238.576 453.536 238.576 456.208V518.064C238.494 519.52 238.07 520.936 237.339 522.198C236.608 523.46 235.59 524.532 234.368 525.328L105.136 599.808C102.816 601.136 100.944 600.048 100.944 597.376V535.664C101.021 534.211 101.441 532.796 102.169 531.536C102.898 530.277 103.915 529.207 105.136 528.416Z" fill="#FF8500"/>
<path opacity="0.7" d="M105.136 528.416L234.384 453.792C236.688 452.448 238.576 453.536 238.576 456.208V518.064C238.494 519.52 238.07 520.936 237.339 522.198C236.608 523.46 235.59 524.532 234.368 525.328L105.136 599.808C102.816 601.136 100.944 600.048 100.944 597.376V535.664C101.021 534.211 101.441 532.796 102.169 531.536C102.898 530.277 103.915 529.207 105.136 528.416Z" fill="white"/>
<path d="M228.08 448.224L237.2 453.424C236.736 453.252 236.237 453.195 235.746 453.259C235.256 453.323 234.788 453.506 234.384 453.792L105.136 528.416C104.026 529.086 103.089 530.006 102.4 531.104L93.184 525.792C93.8629 524.728 94.784 523.84 95.872 523.2L225.12 448.576C225.684 448.228 226.33 448.035 226.992 448.016C227.366 447.993 227.74 448.065 228.08 448.224Z" fill="#FF8500"/>
<path opacity="0.85" d="M228.08 448.224L237.2 453.424C236.736 453.252 236.237 453.195 235.746 453.259C235.256 453.323 234.788 453.506 234.384 453.792L105.136 528.416C104.026 529.086 103.089 530.006 102.4 531.104L93.184 525.792C93.8629 524.728 94.784 523.84 95.872 523.2L225.12 448.576C225.684 448.228 226.33 448.035 226.992 448.016C227.366 447.993 227.74 448.065 228.08 448.224Z" fill="white"/>
<path d="M115.2 534.112L224.224 471.072C225.328 470.432 226.24 470.88 226.24 472.096C226.188 472.77 225.978 473.422 225.628 474C225.278 474.578 224.797 475.066 224.224 475.424L115.2 538.464C114.08 539.104 113.184 538.656 113.184 537.456C113.233 536.779 113.441 536.123 113.791 535.542C114.141 534.961 114.624 534.471 115.2 534.112Z" fill="#FF8500"/>
<path d="M115.2 578.176L224.272 515.2C225.376 514.56 226.288 515.024 226.288 516.224C226.236 516.898 226.026 517.55 225.676 518.128C225.326 518.706 224.845 519.194 224.272 519.552L115.2 582.528C114.08 583.168 113.184 582.704 113.184 581.504C113.233 580.829 113.441 580.176 113.791 579.597C114.142 579.019 114.624 578.531 115.2 578.176Z" fill="#FF8500"/>
<path d="M115.2 556.144L224.224 493.104C225.328 492.464 226.24 492.912 226.24 494.112C226.188 494.788 225.978 495.442 225.628 496.023C225.278 496.603 224.797 497.094 224.224 497.456L115.2 560.496C114.08 561.136 113.184 560.688 113.184 559.488C113.23 558.81 113.437 558.154 113.788 557.572C114.138 556.991 114.622 556.501 115.2 556.144Z" fill="#FF8500"/>
<path d="M115.2 567.152L224.224 504.112C225.328 503.472 226.24 503.92 226.24 505.12C226.19 505.797 225.982 506.452 225.631 507.033C225.281 507.614 224.799 508.104 224.224 508.464L115.2 571.504C114.08 572.144 113.184 571.696 113.184 570.496C113.233 569.819 113.441 569.163 113.791 568.582C114.141 568.001 114.624 567.511 115.2 567.152Z" fill="#FF8500"/>
<path d="M115.2 545.136L224.224 482.08C225.328 481.44 226.24 481.904 226.24 483.104C226.188 483.778 225.978 484.43 225.628 485.008C225.278 485.586 224.797 486.074 224.224 486.432L115.2 549.488C114.08 550.128 113.184 549.664 113.184 548.464C113.233 547.789 113.441 547.136 113.791 546.557C114.142 545.979 114.624 545.491 115.2 545.136Z" fill="#FF8500"/>
<path d="M101.648 505.6L92.8 500.656C92.3895 500.35 92.0648 499.943 91.8574 499.475C91.65 499.007 91.5668 498.494 91.616 497.984V333.792C91.7018 332.135 92.2567 330.537 93.216 329.184L101.792 334.144C100.919 335.469 100.427 337.007 100.368 338.592V502.96C100.325 503.474 100.421 503.991 100.647 504.455C100.872 504.92 101.218 505.315 101.648 505.6Z" fill="#263238"/>
<path d="M236.048 256.16C235.272 256.091 234.495 256.282 233.84 256.704L104.592 331.328C103.461 332.036 102.512 333.001 101.824 334.144L93.232 329.184C93.9 328.111 94.8026 327.203 95.872 326.528L225.12 251.92C225.681 251.563 226.328 251.364 226.992 251.344C227.372 251.341 227.746 251.435 228.08 251.616L236.048 256.16Z" fill="#37474F"/>
<path d="M104.592 331.312L233.84 256.704C236.144 255.36 238.032 256.448 238.032 259.12V423.632C237.95 425.086 237.528 426.501 236.8 427.763C236.072 429.024 235.058 430.097 233.84 430.896L104.592 505.376C102.272 506.704 100.4 505.632 100.4 502.96V338.576C100.479 337.121 100.9 335.705 101.629 334.443C102.357 333.181 103.372 332.109 104.592 331.312Z" fill="#455A64"/>
<path d="M111.216 336.416L227.2 269.44C229.28 268.24 230.96 269.216 230.96 271.616V419.2C230.892 420.505 230.516 421.776 229.863 422.908C229.209 424.04 228.297 425.001 227.2 425.712L111.216 492.64C109.136 493.84 107.456 492.864 107.456 490.464V342.928C107.526 341.623 107.903 340.354 108.557 339.222C109.21 338.09 110.121 337.129 111.216 336.416Z" fill="#F0F0F0"/>
<mask id="mask1_25_199" style="mask-type:luminance" maskUnits="userSpaceOnUse" x="107" y="268" width="124" height="226">
<path d="M111.216 336.416L227.2 269.44C229.28 268.24 230.96 269.216 230.96 271.616V419.2C230.892 420.505 230.516 421.776 229.863 422.908C229.209 424.04 228.297 425.001 227.2 425.712L111.216 492.64C109.136 493.84 107.456 492.864 107.456 490.464V342.928C107.526 341.623 107.903 340.354 108.557 339.222C109.21 338.09 110.121 337.129 111.216 336.416Z" fill="white"/>
</mask>
<g mask="url(#mask1_25_199)">
<path d="M204.352 398C195.296 386.24 180.352 387.904 180.352 387.904C181.67 398.128 184.155 408.167 187.76 417.824C187.76 417.824 215.376 458.032 220.88 461.792L228.512 436.464C228.512 436.464 210.224 405.648 204.352 398Z" fill="#FFBDA7"/>
<path d="M177.12 388.48C181.034 387.223 185.142 386.681 189.248 386.88C195.76 387.296 203.776 394.672 208.56 402.352C214.96 412.624 219.216 419.952 219.216 419.952C219.216 419.952 217.088 432.016 200.624 437.216L185.392 417.344L177.12 388.48Z" fill="#FF8500"/>
<path opacity="0.5" d="M177.12 388.48C181.034 387.223 185.142 386.681 189.248 386.88C195.76 387.296 203.776 394.672 208.56 402.352C214.96 412.624 219.216 419.952 219.216 419.952C219.216 419.952 217.088 432.016 200.624 437.216L185.392 417.344L177.12 388.48Z" fill="black"/>
<path d="M135.104 435.616L132.976 469.216L134.688 532.08C155.856 539.296 182.784 532.944 205.376 507.84C205.376 507.84 204.448 424.352 201.504 410.096C197.968 392.928 189.536 383.536 172.448 389.648L155.696 396.336L138.464 403.2C138.464 403.2 135.104 429.12 135.104 435.616Z" fill="#FF8500"/>
<path opacity="0.4" d="M135.104 435.616L132.976 469.216L134.688 532.08C155.856 539.296 182.784 532.944 205.376 507.84C205.376 507.84 204.448 424.352 201.504 410.096C197.968 392.928 189.536 383.536 172.448 389.648L155.696 396.336L138.464 403.2C138.464 403.2 135.104 429.12 135.104 435.616Z" fill="black"/>
<path d="M157.216 341.92C157.216 356.16 167.216 365.024 179.616 361.712C192.016 358.4 202.016 344.192 202.016 329.952C202.016 315.712 191.376 315.712 179.04 319.024C166.704 322.336 157.216 327.68 157.216 341.92Z" fill="#263238"/>
<path d="M153.6 371.712L149.856 367.376L151.376 361.136L148.176 336.48C146.875 336.263 145.539 336.469 144.363 337.068C143.188 337.667 142.236 338.627 141.648 339.808C136.288 349.536 148.784 379.44 149.856 381.52C150.251 382.272 150.828 382.912 151.536 383.382C152.243 383.852 153.058 384.136 153.904 384.208L153.6 371.712Z" fill="#263238"/>
<path d="M153.168 360.64C151.936 361.84 150.16 359.552 148.624 358.112C147.088 356.672 142.096 355.488 139.6 362.224C137.104 368.96 141.792 376 145.728 376.368C152.528 377.008 153.536 371.712 153.536 371.712L153.776 400.672C165.152 412.752 191.36 406.848 176.176 393.168V384.576C179.291 384.306 182.363 383.666 185.328 382.672C190.32 380.432 193.456 375.056 194.928 368.4C197.36 357.744 198.288 349.408 196.224 330.256C193.952 309.264 172.224 314.864 160.448 326.544C148.672 338.224 153.168 360.64 153.168 360.64Z" fill="#FFBDA7"/>
<path d="M152.944 362.672C150.864 362.128 149.504 358.8 148.624 358.112C147.744 357.424 147.888 355.664 147.856 354.784C147.931 352.623 147.878 350.459 147.696 348.304C147.251 346.036 147.005 343.734 146.96 341.424C146.96 336.624 147.072 329.936 149.04 325.504C152.672 317.328 158.336 315.264 165.168 313.072C170.416 311.472 176.16 311.632 181.312 309.68C185.526 307.792 189.385 305.194 192.72 302C193.984 300.928 195.744 299.808 197.136 300.688C197.795 301.201 198.249 301.933 198.416 302.752C199.178 305.214 199.413 307.809 199.104 310.368C199.7 310.411 200.297 310.319 200.852 310.097C201.406 309.875 201.903 309.53 202.304 309.088C202.544 308.8 202.8 308.464 203.168 308.464C203.536 308.464 203.936 309.056 204.016 309.552C204.318 311.7 204.126 313.889 203.456 315.952C200.512 326.256 190.272 332.496 179.824 334.896C173.976 336.496 167.835 336.716 161.888 335.536C161.173 335.384 160.427 335.516 159.808 335.904C159.277 336.308 158.885 336.867 158.688 337.504C157.552 340.432 158.688 346.416 158.4 350.448C157.968 355.36 157.216 359.52 155.36 361.84C155.107 362.228 154.732 362.52 154.295 362.671C153.857 362.821 153.382 362.822 152.944 362.672Z" fill="#263238"/>
<path d="M147.52 336.896L140.016 334.24C141.072 331.472 143.616 329.824 145.696 330.56C147.776 331.296 148.592 334.112 147.52 336.896Z" fill="#263238"/>
<path d="M176.112 384.576C176.112 384.576 164.912 384.976 161.088 383.616C158.752 382.801 156.82 381.116 155.696 378.912C156.242 381.24 157.285 383.423 158.752 385.312C161.6 388.752 176.112 387.968 176.112 387.968V384.576Z" fill="#F0997A"/>
<path d="M173.44 354.176C173.439 354.872 173.225 355.552 172.828 356.123C172.43 356.695 171.868 357.132 171.216 357.376C169.968 357.696 168.976 356.768 168.976 355.28C168.981 354.582 169.198 353.903 169.598 353.331C169.998 352.76 170.562 352.323 171.216 352.08C172.448 351.76 173.44 352.688 173.44 354.176Z" fill="#263238"/>
<path d="M169.856 344.464L165.056 348.784C164.742 347.982 164.681 347.103 164.882 346.265C165.082 345.427 165.533 344.67 166.176 344.096C166.404 343.806 166.701 343.579 167.041 343.434C167.38 343.29 167.75 343.233 168.117 343.27C168.484 343.307 168.836 343.435 169.14 343.644C169.443 343.853 169.69 344.135 169.856 344.464Z" fill="#263238"/>
<path d="M175.104 369.28L180.208 370.128C180.055 370.936 179.624 371.664 178.99 372.187C178.355 372.711 177.558 372.995 176.736 372.992C175.344 372.8 174.608 371.104 175.104 369.28Z" fill="#F0997A"/>
<path d="M193.92 340.272L189.568 337.6C190.448 336 192.144 335.168 193.344 336C193.931 336.528 194.312 337.248 194.417 338.03C194.523 338.813 194.346 339.607 193.92 340.272Z" fill="#263238"/>
<path d="M192.976 348.192C192.971 348.89 192.754 349.569 192.354 350.141C191.954 350.712 191.39 351.149 190.736 351.392C189.504 351.728 188.512 350.784 188.512 349.312C188.499 348.603 188.706 347.907 189.104 347.32C189.502 346.732 190.072 346.283 190.736 346.032C192 345.776 192.976 346.704 192.976 348.192Z" fill="#263238"/>
<path d="M180.976 348.32L181.232 363.888L189.232 359.696L180.976 348.32Z" fill="#F0997A"/>
<path d="M108.608 500.592C115.648 425.488 125.216 407.136 139.008 405.248C144.416 409.28 146.128 426.528 142.304 444.416C142.304 444.416 134.496 484.912 133.808 499.488C133.2 512.288 129.664 527.968 131.232 538.048C131.52 539.824 132.448 545.008 133.408 546.208C136.608 550.144 135.824 551.968 138.208 555.04C140.128 557.44 143.312 558.88 143.008 559.84C142.544 560.992 140.448 562.48 137.12 560.944C135.184 559.906 133.536 558.405 132.32 556.576C132.32 556.576 132.672 561.376 137.12 568.672C141.296 575.664 142.528 582.96 130.896 581.616C124.32 580.864 119.488 579.008 115.232 562.048C114.048 557.36 113.088 548.848 112.16 542.72C109.424 525.04 107.632 510.928 108.608 500.592Z" fill="#FFBDA7"/>
<path d="M139.2 402.96C139.2 402.96 125.264 405.696 121.376 418.656C118.176 429.6 115.52 439.456 112.064 462.432C115.693 465.751 120.195 467.963 125.04 468.808C129.885 469.653 134.87 469.095 139.408 467.2C139.408 467.2 146.768 437.232 147.504 423.76C148.304 409.008 139.2 402.96 139.2 402.96Z" fill="#FF8500"/>
<path opacity="0.5" d="M139.2 402.96C139.2 402.96 125.264 405.696 121.376 418.656C118.176 429.6 115.52 439.456 112.064 462.432C115.693 465.751 120.195 467.963 125.04 468.808C129.885 469.653 134.87 469.095 139.408 467.2C139.408 467.2 146.768 437.232 147.504 423.76C148.304 409.008 139.2 402.96 139.2 402.96Z" fill="black"/>
</g>
<path d="M277.6 497.424L268.336 492.128C267.929 491.819 267.607 491.412 267.4 490.945C267.193 490.477 267.107 489.965 267.152 489.456V427.744C267.244 426.089 267.798 424.492 268.752 423.136L277.968 428.448C277.05 429.802 276.534 431.389 276.48 433.024V494.72C276.408 495.23 276.474 495.749 276.671 496.225C276.868 496.7 277.189 497.115 277.6 497.424Z" fill="#FF8500"/>
<path opacity="0.55" d="M277.6 497.424L268.336 492.128C267.929 491.819 267.607 491.412 267.4 490.945C267.193 490.477 267.107 489.965 267.152 489.456V427.744C267.244 426.089 267.798 424.492 268.752 423.136L277.968 428.448C277.05 429.802 276.534 431.389 276.48 433.024V494.72C276.408 495.23 276.474 495.749 276.671 496.225C276.868 496.7 277.189 497.115 277.6 497.424Z" fill="white"/>
<path d="M280.56 425.76L409.792 351.136C412.112 349.792 413.984 350.88 413.984 353.552V415.408C413.907 416.861 413.487 418.276 412.759 419.536C412.03 420.795 411.013 421.865 409.792 422.656L280.56 497.152C278.24 498.48 276.368 497.392 276.368 494.72V433.008C276.445 431.555 276.865 430.14 277.593 428.88C278.322 427.621 279.339 426.551 280.56 425.76Z" fill="#FF8500"/>
<path opacity="0.7" d="M280.56 425.76L409.792 351.136C412.112 349.792 413.984 350.88 413.984 353.552V415.408C413.907 416.861 413.487 418.276 412.759 419.536C412.03 420.795 411.013 421.865 409.792 422.656L280.56 497.152C278.24 498.48 276.368 497.392 276.368 494.72V433.008C276.445 431.555 276.865 430.14 277.593 428.88C278.322 427.621 279.339 426.551 280.56 425.76Z" fill="white"/>
<path d="M403.488 345.6L412.608 350.8C412.144 350.627 411.645 350.571 411.154 350.635C410.664 350.699 410.196 350.882 409.792 351.168L280.544 425.76C279.452 426.436 278.532 427.356 277.856 428.448L268.64 423.136C269.297 422.054 270.202 421.144 271.28 420.48L400.528 345.856C401.098 345.508 401.749 345.315 402.416 345.296C402.794 345.3 403.164 345.405 403.488 345.6Z" fill="#FF8500"/>
<path opacity="0.85" d="M403.488 345.6L412.608 350.8C412.144 350.627 411.645 350.571 411.154 350.635C410.664 350.699 410.196 350.882 409.792 351.168L280.544 425.76C279.452 426.436 278.532 427.356 277.856 428.448L268.64 423.136C269.297 422.054 270.202 421.144 271.28 420.48L400.528 345.856C401.098 345.508 401.749 345.315 402.416 345.296C402.794 345.3 403.164 345.405 403.488 345.6Z" fill="white"/>
<path d="M290.656 431.456L399.696 368.416C400.8 367.776 401.696 368.224 401.696 369.424C401.649 370.099 401.444 370.754 401.096 371.335C400.749 371.916 400.269 372.407 399.696 372.768L290.656 435.808C289.552 436.448 288.656 436 288.656 434.8C288.705 434.125 288.912 433.471 289.259 432.891C289.607 432.31 290.085 431.819 290.656 431.456Z" fill="#FF8500"/>
<path d="M290.656 475.52L399.696 412.464C400.8 411.824 401.696 412.288 401.696 413.488C401.647 414.161 401.44 414.812 401.093 415.39C400.745 415.968 400.267 416.457 399.696 416.816L290.656 479.872C289.552 480.512 288.656 480.048 288.656 478.848C288.705 478.175 288.912 477.524 289.259 476.946C289.607 476.368 290.085 475.879 290.656 475.52Z" fill="#FF8500"/>
<path d="M290.656 453.488L399.696 390.4C400.8 389.76 401.696 390.208 401.696 391.408C401.647 392.083 401.44 392.737 401.093 393.317C400.745 393.898 400.267 394.389 399.696 394.752L290.656 457.792C289.552 458.432 288.656 457.984 288.656 456.768C288.713 456.104 288.923 455.462 289.27 454.892C289.617 454.323 290.091 453.842 290.656 453.488Z" fill="#FF8500"/>
<path d="M290.656 464.496L399.696 401.456C400.8 400.816 401.696 401.264 401.696 402.464C401.649 403.139 401.444 403.794 401.096 404.375C400.749 404.956 400.269 405.447 399.696 405.808L290.656 468.8C289.552 469.44 288.656 468.992 288.656 467.792C288.713 467.126 288.923 466.481 289.27 465.909C289.616 465.338 290.091 464.854 290.656 464.496Z" fill="#FF8500"/>
<path d="M290.656 442.48L399.696 379.424C400.8 378.784 401.696 379.248 401.696 380.448C401.647 381.121 401.44 381.772 401.093 382.35C400.745 382.928 400.267 383.417 399.696 383.776L290.656 446.832C289.552 447.472 288.656 447.008 288.656 445.808C288.705 445.135 288.912 444.484 289.259 443.906C289.607 443.328 290.085 442.839 290.656 442.48Z" fill="#FF8500"/>
<path d="M277.424 404.96L268.64 400C268.229 399.694 267.905 399.287 267.697 398.819C267.49 398.351 267.407 397.838 267.456 397.328V233.088C267.542 231.431 268.097 229.833 269.056 228.48L277.632 233.44C276.76 234.765 276.267 236.303 276.208 237.888V402.256C276.146 402.775 276.227 403.3 276.441 403.776C276.656 404.253 276.995 404.662 277.424 404.96Z" fill="#263238"/>
<path d="M411.824 155.456C411.048 155.387 410.271 155.578 409.616 156L280.368 230.624C279.237 231.332 278.288 232.297 277.6 233.44L269.008 228.48C269.676 227.407 270.579 226.499 271.648 225.824L400.896 151.216C401.457 150.859 402.104 150.66 402.768 150.64C403.148 150.637 403.522 150.731 403.856 150.912L411.824 155.456Z" fill="#37474F"/>
<path d="M280.368 230.624L409.6 156C411.92 154.672 413.792 155.744 413.792 158.432V322.944C413.715 324.397 413.295 325.812 412.567 327.072C411.838 328.331 410.821 329.401 409.6 330.192L280.352 404.672C278.048 406.016 276.16 404.928 276.16 402.256V237.888C276.243 236.432 276.666 235.016 277.397 233.754C278.128 232.492 279.146 231.42 280.368 230.624Z" fill="#455A64"/>
<path d="M287.008 235.712L403.008 168.736C405.088 167.536 406.768 168.512 406.768 170.912V318.576C406.698 319.881 406.321 321.15 405.667 322.282C405.014 323.414 404.103 324.375 403.008 325.088L287.008 392C284.928 393.2 283.248 392.224 283.248 389.824V242.24C283.318 240.933 283.695 239.661 284.348 238.527C285.002 237.393 285.913 236.429 287.008 235.712Z" fill="#F0F0F0"/>
<mask id="mask2_25_199" style="mask-type:luminance" maskUnits="userSpaceOnUse" x="283" y="168" width="124" height="225">
<path d="M287.008 235.712L403.008 168.736C405.088 167.536 406.768 168.512 406.768 170.912V318.576C406.698 319.881 406.321 321.15 405.667 322.282C405.014 323.414 404.103 324.375 403.008 325.088L287.008 392C284.928 393.2 283.248 392.224 283.248 389.824V242.224C283.319 240.92 283.697 239.65 284.35 238.519C285.003 237.388 285.914 236.426 287.008 235.712Z" fill="white"/>
</mask>
<g mask="url(#mask2_25_199)">
<path d="M384.192 367.44C367.024 306.912 366.832 297.04 367.856 289.904C383.44 286.144 390.256 296.832 394.416 314.848C396.416 323.504 402.176 356.448 405.744 370.224C408.944 382.304 412.816 395.264 417.52 403.824C417.902 404.549 418.45 405.172 419.121 405.642C419.792 406.113 420.565 406.416 421.376 406.528C425.744 407.152 427.04 409.6 430.592 411.424C433.376 412.832 435.392 412.48 435.312 413.456C435.106 414.542 434.574 415.539 433.789 416.316C433.003 417.093 432 417.614 430.912 417.808C429.162 417.997 427.392 417.883 425.68 417.472C427.786 420.23 430.365 422.591 433.296 424.448C440.144 428.88 442.272 435.648 430.416 438.992C425.76 440.288 417.088 438.816 406.768 424.88C403.331 419.89 400.48 414.522 398.272 408.88C392.4 394.016 387.616 379.536 384.192 367.44Z" fill="#FFA8A7"/>
<path d="M342.512 296.864C342.512 296.864 325.52 302.896 321.136 304.96C332.336 318.4 318.928 355.072 318.928 355.072L326.08 379.776L379.84 360.944C388.736 338.544 390.48 328.384 389.696 322.24C387.92 308.32 379.6 299.184 367.856 289.904L342.512 296.864Z" fill="#FF8500"/>
<path d="M382.88 281.952L354.848 290.752C350.574 292.095 346.045 292.413 341.625 291.682C337.206 290.951 333.02 289.19 329.407 286.542C325.794 283.895 322.854 280.434 320.825 276.44C318.796 272.447 317.735 268.032 317.728 263.552V257.6C317.728 237.504 331.84 217.44 349.248 212.8L351.6 212.176C369.008 207.504 383.12 220.016 383.12 240.112V245.728C383.12 263.712 382.88 281.952 382.88 281.952Z" fill="#37474F"/>
<path d="M328.576 221.136C326.848 219.44 323.952 220.08 322.096 222.56L325.552 225.984C324.734 225.887 323.905 226.049 323.184 226.448C321.932 227.151 320.923 228.217 320.288 229.505C319.654 230.793 319.425 232.243 319.632 233.664L328.608 229.072C328.561 228.866 328.502 228.663 328.432 228.464C330.128 226 330.24 222.784 328.576 221.136Z" fill="#37474F"/>
<path d="M370.848 227.84C374.048 229.936 378.528 233.696 378.112 254.832C377.76 272.736 372.752 278.48 370.24 280.432C367.728 282.384 362.88 282.896 358.176 283.248V294.544C358.176 294.544 366.32 302.256 365.904 307.344C365.488 312.432 358.176 316.608 347.136 309.84C343.249 307.249 339.973 303.842 337.536 299.856L337.632 275.696C337.632 275.696 334.864 279.536 330.176 276.048C328.197 274.48 326.875 272.228 326.473 269.734C326.07 267.241 326.615 264.688 328 262.576C328.606 261.636 329.407 260.837 330.348 260.232C331.289 259.628 332.349 259.232 333.456 259.072C334.105 259.042 334.753 259.143 335.362 259.371C335.97 259.599 336.526 259.947 336.996 260.396C337.466 260.845 337.839 261.384 338.094 261.982C338.35 262.579 338.481 263.222 338.48 263.872V265.2C338.48 265.2 341.904 265.728 342.128 259.04C342.256 255.328 346.688 249.44 351.024 245.728C358.4 239.376 367.792 239.296 370.848 227.84Z" fill="#FFA8A7"/>
<path d="M358.928 253.728C358.956 254.343 358.795 254.953 358.466 255.473C358.137 255.994 357.656 256.401 357.088 256.64C356.016 256.992 355.104 256.24 355.056 255.04C355.026 254.422 355.187 253.811 355.516 253.287C355.845 252.763 356.327 252.353 356.896 252.112C357.952 251.712 358.88 252.448 358.928 253.728Z" fill="#263238"/>
<path d="M360.224 269.072L365.936 269.648C365.794 270.551 365.346 271.377 364.668 271.989C363.989 272.601 363.12 272.96 362.208 273.008C360.64 272.848 359.744 271.088 360.224 269.072Z" fill="#F28F8F"/>
<path d="M375.728 244L371.808 241.904C372.512 240.416 373.984 239.68 375.008 240.304C375.566 240.72 375.949 241.33 376.082 242.013C376.215 242.696 376.089 243.405 375.728 244Z" fill="#263238"/>
<path d="M353.376 249.808L357.296 245.6C356.576 244.512 355.12 244.544 354.096 245.712C353.561 246.232 353.203 246.908 353.074 247.644C352.945 248.379 353.05 249.136 353.376 249.808Z" fill="#263238"/>
<path d="M375.264 250.384C375.298 251.002 375.139 251.616 374.81 252.141C374.48 252.665 373.996 253.074 373.424 253.312C372.352 253.664 371.44 252.912 371.392 251.712C371.36 251.094 371.52 250.481 371.849 249.957C372.178 249.433 372.661 249.023 373.232 248.784C374.288 248.368 375.216 249.12 375.264 250.384Z" fill="#263238"/>
<path d="M365.936 251.024L366.24 264.432L372.384 260.592L365.936 251.024Z" fill="#F28F8F"/>
<path d="M358.176 283.2C353.216 283.776 343.008 283.2 341.408 278.896C341.968 280.935 343.239 282.706 344.992 283.888C348.048 286.08 358.176 286.768 358.176 286.768V283.2Z" fill="#F28F8F"/>
<path d="M291.856 401.696C297.152 343.856 300.176 311.264 321.136 304.96C324.256 306.096 327.152 312.96 327.696 317.936C328.64 326.352 327.504 340.88 322.288 348.336C322.288 348.336 315.712 382.992 313.168 402.944C311.408 416.752 307.616 436.64 308.496 447.84C308.913 449.863 309.801 451.76 311.088 453.376L314.64 459.28C315.339 460.519 316.142 461.696 317.04 462.8C317.856 463.744 318.8 464.56 319.68 465.44C320.336 466.08 320.976 467.04 320.432 467.808C320.221 468.057 319.943 468.24 319.632 468.336C318.59 468.73 317.471 468.88 316.361 468.775C315.252 468.67 314.181 468.311 313.232 467.728C312.048 466.992 311.088 465.92 309.856 465.28C309.958 467.345 310.544 469.356 311.568 471.152C312.272 472.608 312.976 474.08 313.76 475.52C314.605 476.962 315.354 478.459 316 480C316.665 481.543 316.827 483.256 316.464 484.896C316.057 486.148 315.308 487.261 314.301 488.109C313.294 488.957 312.071 489.507 310.768 489.696C308.151 490.032 305.495 489.51 303.2 488.208C295.312 484.128 292.672 475.936 291.68 467.712C290.717 460.872 290.182 453.979 290.08 447.072C290.384 428.8 290.832 412.96 291.856 401.696Z" fill="#FFA8A7"/>
<path d="M337.6 298.192C334.186 298.922 330.933 300.266 328 302.16C328 302.16 335.552 316.752 348.512 318.864C361.472 320.976 362.4 312.256 362.4 312.256C354.288 312.592 346.096 309.072 337.6 298.192Z" fill="#455A64"/>
<path d="M358.176 292.336V294.544C363.68 301.712 365.36 307.904 362.32 312.256C362.32 312.256 371.392 315.344 372.992 308.688C374.592 302.032 363.072 291.248 363.072 291.248C361.396 291.37 359.746 291.736 358.176 292.336Z" fill="#455A64"/>
</g>
<path d="M240 118.752L230.4 124.304C230.45 123.879 230.477 123.452 230.48 123.024V120.256C230.48 115.296 227.008 113.296 222.72 115.76C220.868 116.894 219.284 118.417 218.08 120.224C217.392 113.984 212.496 111.68 206.576 115.104C203.191 117.303 200.375 120.272 198.356 123.767C196.337 127.262 195.174 131.185 194.96 135.216V139.376C194.92 141.029 195.253 142.67 195.936 144.176L187.936 148.784C186.685 149.604 185.642 150.705 184.892 152C184.142 153.295 183.705 154.747 183.616 156.24C183.616 158.992 185.552 160.112 187.936 158.736L240 128.704C241.248 127.882 242.287 126.78 243.035 125.485C243.782 124.191 244.216 122.74 244.304 121.248C244.32 118.496 242.4 117.392 240 118.752Z" fill="#EBEBEB"/>
<path d="M176.544 93.248L171.2 95.28V83.616C171.2 74.368 163.824 72.144 155.824 76.768C147.824 81.408 141.312 92.656 141.312 101.904V103.6C140.184 103.247 138.991 103.157 137.823 103.337C136.655 103.518 135.545 103.963 134.576 104.64C131.538 106.621 129.009 109.29 127.197 112.432C125.384 115.573 124.338 119.098 124.144 122.72V123.488L116.8 127.744C114.798 129.048 113.132 130.805 111.937 132.874C110.742 134.942 110.051 137.263 109.92 139.648C109.92 144.032 113.008 145.808 116.8 143.616L176.544 109.12C178.543 107.815 180.207 106.057 181.4 103.989C182.592 101.921 183.28 99.6001 183.408 97.216C183.408 92.8 180.336 91.056 176.544 93.248Z" fill="#EBEBEB"/>
<path d="M509.904 427.2C507.648 425.344 504.176 424.96 500.016 426.512C491.68 429.6 483.712 439.216 482.208 447.968C481.456 452.352 482.48 455.696 484.72 457.568L637.6 594.56C640.704 597.488 645.728 598.208 651.84 595.952C663.488 591.632 674.64 578.208 676.72 565.952C677.824 559.552 676.192 554.752 672.72 552.208L509.904 427.2Z" fill="#FF8500"/>
<path opacity="0.15" d="M506.073 449.613C513.024 441.234 514.734 431.185 509.891 427.168C505.049 423.151 495.489 426.687 488.538 435.065C481.587 443.444 479.877 453.493 484.719 457.51C489.561 461.527 499.122 457.991 506.073 449.613Z" fill="black"/>
<path d="M452.336 394.096C449.647 395.257 447.271 397.038 445.402 399.293C443.534 401.549 442.225 404.214 441.584 407.072C441.298 408.084 441.286 409.154 441.55 410.172C441.815 411.19 442.345 412.119 443.088 412.864L489.696 451.536C490.562 452.133 491.572 452.488 492.621 452.564C493.67 452.64 494.721 452.434 495.664 451.968C498.354 450.806 500.731 449.025 502.602 446.77C504.473 444.515 505.785 441.85 506.432 438.992C506.719 437.976 506.73 436.902 506.463 435.881C506.196 434.86 505.66 433.929 504.912 433.184L458.32 394.528C457.451 393.929 456.439 393.574 455.387 393.498C454.335 393.422 453.281 393.628 452.336 394.096Z" fill="#263238"/>
<path opacity="0.1" d="M502 453.712L659.824 591.472C657.367 593.296 654.676 594.781 651.824 595.888C645.712 598.144 640.624 597.488 637.568 594.48L484.8 457.6C487.072 459.472 490.512 459.824 494.688 458.288C497.367 457.187 499.839 455.64 502 453.712Z" fill="black"/>
<path d="M534.064 244.8C534.064 243.2 533.936 241.6 533.808 240C533.68 238.4 533.616 236.88 533.456 235.344C533.456 234.304 533.264 233.296 533.136 232.256C532.864 229.584 532.48 226.928 532.032 224.416C531.84 223.264 531.632 222.096 531.408 220.944C531.184 219.792 530.96 218.768 530.736 217.744C530.064 214.832 529.344 211.984 528.528 209.248C528.096 207.952 527.696 206.656 527.264 205.392C527.178 205.202 527.114 205.004 527.072 204.8C526.608 203.536 526.16 202.32 525.68 201.12C525.2 199.92 524.592 198.368 523.952 197.056C523.504 196.08 523.088 195.136 522.576 194.192C522.286 193.485 521.944 192.8 521.552 192.144C521.156 191.301 520.718 190.479 520.24 189.68C520.146 189.491 520.039 189.309 519.92 189.136C519.536 188.432 519.088 187.712 518.672 187.008C518.256 186.304 518.08 186.112 517.808 185.664C515.793 182.474 513.519 179.456 511.008 176.64C510.576 176.16 510.144 175.68 509.76 175.216L508.688 174.096C508.256 173.632 507.776 173.2 507.296 172.72C506.005 171.413 504.638 170.184 503.2 169.04C502.528 168.464 501.824 167.92 501.104 167.44C500.384 166.96 499.696 166.384 498.944 165.84C497.815 165.011 496.64 164.247 495.424 163.552L494.48 162.96L494.288 162.8L472.224 149.84L471.904 149.648C461.146 143.656 449 140.604 436.688 140.8C418.368 140.8 397.712 146.8 375.808 159.408C300.608 202.848 239.632 308.464 239.632 395.328C239.632 438.656 254.784 469.12 279.28 483.328L279.504 483.44L301.6 496.368L301.856 496.512L302.176 496.688L302.528 496.88C303.584 497.488 304.64 498.048 305.728 498.576C306.816 499.104 308.448 499.84 309.824 500.368C311.049 500.905 312.304 501.37 313.584 501.76C314.234 501.994 314.896 502.192 315.568 502.352C316.276 502.621 317.003 502.835 317.744 502.992C318.47 503.211 319.207 503.392 319.952 503.536C320.477 503.69 321.011 503.808 321.552 503.888C322.496 504.08 323.52 504.288 324.512 504.416C324.73 504.484 324.956 504.522 325.184 504.528C326.352 504.72 327.552 504.896 328.72 505.008C349.008 507.136 372.592 501.408 397.84 486.848C473.04 443.424 534.08 337.76 534.08 250.928C534.176 248.912 534.128 246.864 534.064 244.8ZM285.872 449.76C282.723 438.142 281.172 426.149 281.264 414.112C281.264 331.808 341.488 227.472 412.768 186.32C423.176 180.157 434.409 175.507 446.128 172.512C451.746 171.123 457.508 170.398 463.296 170.352C466.211 170.339 469.122 170.563 472 171.024H472.24C486.832 188.288 488.976 215.936 488.976 230.72C488.976 313.024 428.816 417.36 357.504 458.496C339.36 468.96 321.92 474.496 306.96 474.496C303.855 474.517 300.761 474.124 297.76 473.328C292.226 466.368 288.18 458.347 285.872 449.76Z" fill="#FF8500"/>
<path opacity="0.15" d="M514.592 245.168C514.592 288.896 497.6 338.816 470.976 382.208C469.728 384.272 468.448 386.288 467.136 388.32C466.032 390.064 464.896 391.808 463.712 393.536C461.216 397.248 458.688 400.912 456.032 404.496C454.784 406.208 453.52 407.904 452.224 409.568C450.928 411.232 449.408 413.232 447.968 415.04C445.232 418.496 442.4 421.856 439.52 425.136C437.632 427.328 435.696 429.472 433.744 431.536C418.064 448.4 400.928 462.64 383.104 472.912C379.696 474.88 376.336 476.672 372.992 478.288C362.151 483.795 350.406 487.302 338.32 488.64C336.368 488.832 334.448 488.912 332.592 488.912C331.6 488.912 330.656 488.912 329.712 488.832H329.6C327.788 488.755 325.982 488.568 324.192 488.272C323.312 488.144 322.448 488 321.616 487.808C320.78 487.647 319.952 487.444 319.136 487.2C310.694 485.056 303.19 480.199 297.776 473.376C300.772 474.172 303.86 474.565 306.96 474.544C321.92 474.544 339.36 469.024 357.504 458.544C428.816 417.408 488.976 313.072 488.976 230.768C488.976 215.984 486.832 188.336 472.24 171.072H472C490.592 174.048 501.168 186.688 507.12 201.296C508.808 205.45 510.167 209.729 511.184 214.096C511.184 214.336 511.296 214.576 511.344 214.816C511.536 215.6 511.728 216.416 511.872 217.184C512.016 217.952 512.176 218.784 512.32 219.488C512.368 219.683 512.405 219.881 512.432 220.08C512.592 220.912 512.736 221.728 512.864 222.528C513.328 225.584 513.712 228.56 513.968 231.408C513.968 232.24 514.112 233.008 514.16 233.808C514.208 234.608 514.256 235.008 514.288 235.584C514.288 235.824 514.288 236.08 514.288 236.32C514.288 236.96 514.368 237.584 514.4 238.208C514.4 238.384 514.4 238.544 514.4 238.736C514.4 239.52 514.4 240.336 514.48 241.056C514.576 242.432 514.592 243.84 514.592 245.168Z" fill="black"/>
<path opacity="0.1" d="M299.712 495.36L279.264 483.344C254.768 469.024 239.616 438.544 239.616 395.344C239.616 356.592 251.76 314.144 271.856 275.168L295.136 288.56C275.024 327.536 261.696 369.552 261.696 408.288C261.696 450.64 276.112 480.688 299.712 495.36Z" fill="black"/>
<path opacity="0.4" d="M494.496 162.96L494.304 162.8L472.256 149.84H472.176L471.872 149.648C461.123 143.664 448.989 140.612 436.688 140.8C418.384 140.8 397.712 146.784 375.808 159.408C334.208 183.408 296.816 226.608 271.808 275.184L294.976 288.816L294.48 289.776C319.52 241.776 356.656 198.368 397.888 172.384C435.216 148.864 470.64 148.544 495.376 163.584L494.496 162.96Z" fill="white"/>
<path opacity="0.3" d="M502.736 238.192C502.736 320.496 442.512 424.832 371.232 465.984C360.824 472.147 349.591 476.797 337.872 479.792C332.254 481.182 326.492 481.907 320.704 481.952C314.758 482.028 308.848 481.019 303.264 478.976C294.416 471.552 289.072 460.8 285.872 449.76C282.723 438.142 281.172 426.149 281.264 414.112C281.264 331.808 341.488 227.472 412.768 186.32C423.176 180.157 434.409 175.507 446.128 172.512C451.746 171.123 457.508 170.398 463.296 170.352C469.24 170.278 475.149 171.281 480.736 173.312C489.6 180.736 494.944 191.504 498.144 202.544C501.281 214.164 502.826 226.156 502.736 238.192Z" fill="white"/>
<mask id="mask3_25_199" style="mask-type:luminance" maskUnits="userSpaceOnUse" x="281" y="170" width="208" height="305">
<path d="M357.504 458.576C428.816 417.44 488.976 313.104 488.976 230.8C488.976 216.016 486.832 188.368 472.24 171.104H472C469.122 170.643 466.211 170.419 463.296 170.432C457.508 170.478 451.746 171.203 446.128 172.592C434.424 175.565 423.202 180.187 412.8 186.32C341.52 227.472 281.296 331.808 281.296 414.112C281.204 426.149 282.755 438.142 285.904 449.76C288.251 458.538 292.434 466.718 298.176 473.76C301.087 474.267 304.037 474.513 306.992 474.496C321.92 474.56 339.36 469.04 357.504 458.576Z" fill="white"/>
</mask>
<g mask="url(#mask3_25_199)">
<path d="M468.976 118.976C467.851 118.887 466.727 119.168 465.776 119.776L275.856 229.408C274.198 230.448 272.806 231.862 271.792 233.536L259.2 226.256C260.172 224.673 261.497 223.337 263.072 222.352L452.928 112.752C453.752 112.227 454.703 111.934 455.68 111.904C456.239 111.9 456.789 112.037 457.28 112.304L468.976 118.976Z" fill="#37474F"/>
<path d="M275.872 229.392L465.728 119.792C469.12 117.824 471.888 119.408 471.888 123.344V364.944C471.77 367.079 471.151 369.156 470.081 371.008C469.011 372.859 467.519 374.432 465.728 375.6L275.872 485.088C272.464 487.04 269.712 485.456 269.712 481.52V240C269.836 237.873 270.458 235.805 271.528 233.962C272.598 232.119 274.086 230.554 275.872 229.392Z" fill="#455A64"/>
<path d="M285.616 236.88L456 138.496C459.04 136.736 461.52 138.16 461.52 141.696V358.592C461.422 360.514 460.87 362.386 459.911 364.054C458.952 365.722 457.612 367.14 456 368.192L285.6 466.4C282.544 468.16 280.064 466.736 280.064 463.2V246.4C280.181 244.49 280.744 242.633 281.708 240.98C282.672 239.326 284.011 237.922 285.616 236.88Z" fill="#F0F0F0"/>
<mask id="mask4_25_199" style="mask-type:luminance" maskUnits="userSpaceOnUse" x="280" y="137" width="182" height="331">
<path d="M285.616 236.88L456 138.496C459.04 136.736 461.52 138.16 461.52 141.696V358.592C461.422 360.514 460.87 362.386 459.911 364.054C458.952 365.722 457.612 367.14 456 368.192L285.6 466.4C282.544 468.16 280.064 466.736 280.064 463.2V246.4C280.181 244.49 280.744 242.633 281.708 240.98C282.672 239.326 284.011 237.922 285.616 236.88Z" fill="white"/>
</mask>
<g mask="url(#mask4_25_199)">
<path d="M428.368 430.4C403.152 341.488 402.88 326.928 404.368 316.512C427.264 310.992 437.232 326.672 443.376 353.152C446.336 365.952 454.784 414.304 460.032 434.496C464.64 452.24 470.416 471.296 477.312 483.968C477.876 485.028 478.683 485.939 479.668 486.626C480.653 487.313 481.787 487.757 482.976 487.92C489.376 488.832 491.296 492.448 496.528 495.104C500.624 497.2 503.648 496.704 503.456 498.112C503.155 499.711 502.374 501.181 501.216 502.324C500.058 503.468 498.579 504.231 496.976 504.512C494.784 504.896 493.088 504.512 489.312 504C492.404 508.064 496.197 511.542 500.512 514.272C510.56 520.784 513.696 530.8 496.272 535.632C489.44 537.52 476.688 535.36 461.552 514.912C456.506 507.587 452.318 499.706 449.072 491.424C440.432 469.424 433.424 448.16 428.368 430.4Z" fill="#FFA8A7"/>
<path d="M367.168 326.704C367.168 326.704 342.208 335.568 335.744 338.608C352.096 358.336 332.544 412.208 332.544 412.208L343.056 448.512C331.744 468.256 420.416 431.6 422.032 420.832C435.088 387.824 437.632 373.008 436.432 363.984C433.84 343.536 421.616 330.112 404.432 316.48L367.168 326.704Z" fill="#FF8500"/>
<path d="M343.024 448.512C364.336 447.952 412.384 429.552 422 420.832C435.056 387.824 437.6 373.008 436.4 363.984" fill="#FF8500"/>
<path d="M426.448 304.784L385.28 317.712C378.999 319.686 372.341 320.153 365.845 319.077C359.35 318 353.199 315.41 347.89 311.516C342.581 307.621 338.263 302.532 335.286 296.66C332.309 290.787 330.756 284.296 330.752 277.712V269.12C330.752 239.6 351.472 210.112 377.04 203.264L380.496 202.336C406.096 195.472 426.8 213.856 426.8 243.392V251.632C426.8 278 426.448 304.784 426.448 304.784Z" fill="#37474F"/>
<path d="M346.672 215.456C344.16 212.976 339.888 213.856 337.152 217.552L342.24 222.576C341.035 222.448 339.818 222.688 338.752 223.264C336.911 224.296 335.428 225.863 334.499 227.758C333.571 229.653 333.24 231.785 333.552 233.872L346.736 227.136C346.667 226.826 346.576 226.521 346.464 226.224C348.976 222.608 349.12 217.872 346.672 215.456Z" fill="#37474F"/>
<path d="M408.768 225.328C413.568 228.384 420.064 233.904 419.44 264.96C418.928 291.264 411.568 299.712 407.888 302.56C404.208 305.408 397.072 306.176 390.16 306.704V323.296C390.16 323.296 402.112 334.64 401.52 342C400.928 349.36 390.16 355.6 373.952 345.664C368.262 341.85 363.464 336.851 359.888 331.008L360.032 295.504C360.032 295.504 355.968 301.168 349.072 296.048C346.164 293.741 344.223 290.429 343.631 286.765C343.039 283.1 343.838 279.346 345.872 276.24C346.759 274.86 347.932 273.687 349.312 272.8C350.693 271.914 352.248 271.336 353.872 271.104C354.831 271.046 355.791 271.188 356.692 271.52C357.593 271.852 358.415 272.368 359.107 273.034C359.798 273.7 360.344 274.502 360.71 275.39C361.076 276.278 361.254 277.232 361.232 278.192V280.144C361.232 280.144 366.272 280.928 366.608 271.104C366.8 265.648 373.312 257.024 379.68 251.552C390.528 242.256 404.288 242.144 408.768 225.328Z" fill="#FFA8A7"/>
<path d="M391.264 263.328C391.309 264.236 391.074 265.136 390.59 265.906C390.107 266.676 389.398 267.279 388.56 267.632C386.96 268.144 385.648 267.04 385.568 265.168C385.528 264.263 385.766 263.367 386.249 262.601C386.733 261.835 387.438 261.234 388.272 260.88C389.84 260.368 391.184 261.472 391.264 263.328Z" fill="#263238"/>
<path d="M393.168 285.888L401.552 286.736C400.848 289.696 398.352 291.904 396.096 291.664C393.84 291.424 392.464 288.848 393.168 285.888Z" fill="#F28F8F"/>
<path d="M416 249.056L410.24 245.984C411.296 243.792 413.44 242.784 415.04 243.568C416.64 244.352 416.992 246.864 416 249.056Z" fill="#263238"/>
<path d="M383.104 257.6L388.864 251.44C387.808 249.84 385.664 249.84 384.064 251.584C383.294 252.36 382.787 253.358 382.614 254.437C382.442 255.517 382.613 256.623 383.104 257.6Z" fill="#263238"/>
<path d="M415.264 258.432C415.309 259.34 415.074 260.24 414.59 261.01C414.107 261.78 413.398 262.383 412.56 262.736C410.96 263.232 409.648 262.144 409.568 260.272C409.528 259.367 409.766 258.471 410.249 257.705C410.733 256.939 411.438 256.338 412.272 255.984C413.84 255.472 415.184 256.576 415.264 258.432Z" fill="#263238"/>
<path d="M401.552 259.376L402.016 279.072L411.04 273.424L401.552 259.376Z" fill="#F28F8F"/>
<path d="M390.16 306.704C382.864 307.552 367.872 306.592 365.536 300.384C366.361 303.376 368.228 305.975 370.8 307.712C375.28 310.912 390.16 311.952 390.16 311.952V306.704Z" fill="#F28F8F"/>
<path d="M292.8 480.704C300.592 395.728 305.024 347.904 335.808 338.608C340.4 340.208 344.656 350.416 345.408 357.664C346.784 370.016 345.12 391.376 337.408 402.368C337.408 402.368 327.808 453.28 324.016 482.576C321.424 502.864 315.856 532.096 317.152 548.544C317.408 551.648 319.392 554.064 320.96 556.672L326.176 565.328C327.206 567.153 328.389 568.887 329.712 570.512C330.896 571.904 332.288 573.104 333.584 574.384C334.544 575.328 335.488 576.8 334.688 577.872C334.381 578.235 333.975 578.502 333.52 578.64C331.979 579.23 330.324 579.457 328.681 579.305C327.039 579.152 325.454 578.623 324.048 577.76C322.304 576.672 320.848 575.088 319.072 574.16C319.223 577.189 320.089 580.139 321.6 582.768C322.624 584.928 323.648 587.088 324.8 589.168C326.07 591.266 327.198 593.447 328.176 595.696C329.149 597.972 329.389 600.494 328.864 602.912C328.253 604.742 327.145 606.366 325.665 607.604C324.184 608.841 322.389 609.643 320.48 609.92C316.632 610.401 312.732 609.627 309.36 607.712C297.792 601.728 293.92 589.696 292.448 577.616C291.061 567.567 290.307 557.44 290.192 547.296C290.576 520.56 291.2 497.232 292.8 480.704Z" fill="#FFA8A7"/>
<path d="M359.888 328.656C354.849 329.723 350.046 331.697 345.712 334.48C345.712 334.48 356.816 355.92 375.856 359.024C394.896 362.128 396.24 349.312 396.24 349.312C384.448 349.808 372.4 344.656 359.888 328.656Z" fill="#455A64"/>
<path d="M390.16 320V323.2C398.24 333.728 400.72 342.816 396.24 349.216C396.24 349.216 409.584 353.744 411.92 343.984C414.256 334.224 397.36 318.384 397.36 318.384C394.894 318.568 392.468 319.112 390.16 320Z" fill="#455A64"/>
</g>
</g>
<path d="M610.544 396.8C621.632 395.568 625.888 398.816 630.016 408C633.952 416.768 646.016 443.2 645.408 449.36C644.8 455.52 619.584 481.744 619.584 481.744L612.4 473.008L627.984 446.8L615.584 420.352L610.544 396.8Z" fill="#FFA8A7"/>
<path d="M588.272 388.192L590.352 409.952L609.792 408.736L608.24 384.608L588.272 388.192Z" fill="#FFA8A7"/>
<path d="M563.36 346.368C563.193 345.345 563.193 344.303 563.36 343.28C563.604 341.957 564.132 340.703 564.909 339.604C565.685 338.505 566.69 337.587 567.856 336.915C569.021 336.243 570.318 335.831 571.658 335.709C572.998 335.587 574.348 335.757 575.616 336.208C575.24 334.21 575.545 332.144 576.482 330.34C577.419 328.536 578.934 327.098 580.784 326.256C582.222 325.71 583.755 325.46 585.292 325.521C586.829 325.581 588.337 325.951 589.728 326.608C591.398 327.194 592.786 328.388 593.616 329.952C594.6 328.303 596.046 326.98 597.775 326.145C599.504 325.311 601.441 325.002 603.344 325.258C605.246 325.513 607.033 326.322 608.48 327.583C609.928 328.844 610.974 330.502 611.488 332.352C614.448 331.696 618.624 333.008 619.952 335.952C621.456 339.296 619.616 343.44 620.304 346.944C620.752 349.216 621.728 351.344 622.144 353.648C622.568 356.214 622.809 358.808 622.864 361.408C623.296 372.144 598.352 379.12 598.864 386.496L585.6 370.32C585.6 369.648 583.712 367.968 583.296 367.408C582.496 366.336 581.792 365.2 581.056 364.08C578.771 360.81 575.594 358.267 571.904 356.752C569.297 355.552 567.039 353.707 565.344 351.392C564.31 349.889 563.632 348.171 563.36 346.368Z" fill="#263238"/>
<path d="M573.84 364.32C573.84 364.32 569.536 370.72 570.096 371.392C571.103 372.053 572.219 372.529 573.392 372.8L573.84 364.32Z" fill="#F28F8F"/>
<path d="M586.992 344C582.816 346.128 575.584 350.048 573.712 365.216C571.808 380.768 575.312 386.176 577.488 388.208C578.944 389.584 586.464 390.08 590.384 388.896C595.28 387.392 605.92 382.24 610.896 374.208C616.752 364.752 617.968 352.16 611.2 347.232C601.68 340.336 590.544 342.256 586.992 344Z" fill="#FFA8A7"/>
<path d="M577.888 388.544C579.648 389.504 584.656 389.904 588.384 389.36L588.256 386.576C586.656 387.263 584.996 387.799 583.296 388.176C581.522 388.567 579.699 388.691 577.888 388.544Z" fill="#F28F8F"/>
<path d="M585.168 343.584C583.391 344.233 581.739 345.186 580.288 346.4C579.561 347.004 578.972 347.757 578.56 348.608C578.244 349.4 578.123 350.256 578.208 351.104C578.332 352.271 578.759 353.386 579.447 354.337C580.134 355.289 581.059 356.044 582.128 356.528C581.56 357.294 581.171 358.177 580.988 359.113C580.805 360.048 580.834 361.013 581.072 361.936C581.837 364.085 583.163 365.991 584.912 367.456C585 367.558 585.109 367.64 585.232 367.696C585.355 367.716 585.481 367.708 585.6 367.672C585.719 367.636 585.829 367.573 585.92 367.488C588.544 365.728 590.176 362.688 593.92 363.92C598.8 365.52 598.56 371.536 594.736 375.28C593.372 376.66 591.564 377.516 589.632 377.696C588.651 377.719 587.695 377.383 586.944 376.752C586.944 376.752 587.088 384.592 593.904 387.712C598.656 389.096 603.696 389.157 608.48 387.888C611.056 384.608 615.376 380.432 618.928 376.688C630.624 364.384 631.296 346.512 614.032 340.864C613.44 340.672 612.848 340.496 612.24 340.336C606.688 338.887 600.874 338.761 595.264 339.968C592.5 340.564 589.815 341.482 587.264 342.704L585.168 343.584Z" fill="#263238"/>
<path d="M584.608 372.944C584.155 372.792 583.737 372.55 583.379 372.233C583.022 371.916 582.731 371.531 582.525 371.099C582.319 370.668 582.202 370.2 582.18 369.722C582.159 369.245 582.234 368.768 582.4 368.32C582.739 367.41 583.423 366.671 584.304 366.263C585.185 365.856 586.191 365.813 587.104 366.144L584.608 372.944Z" fill="#263238"/>
<path d="M586.528 671.344C587.226 673.478 587.813 675.646 588.288 677.84C588.784 680.256 589.488 684.24 588.64 686.096C587.792 687.952 584.496 689.088 579.392 689.04C576.096 689.04 570.944 691.264 567.408 693.232C563.872 695.2 556.208 696.08 552.336 695.616C547.792 695.088 543.088 692.416 542.352 690.576C541.616 688.736 541.008 686.112 553.296 682.176C553.408 682.176 568.176 677.376 573.36 671.616L586.528 671.344Z" fill="#263238"/>
<path d="M586.528 671.68L584.176 671.392L573.36 671.616C568.176 677.328 553.408 682.144 553.296 682.176L551.328 682.832C549.2 684.56 551.008 687.488 556.128 687.936C561.248 688.384 577.008 683.136 580.512 681.392C582.347 680.529 583.892 679.152 584.96 677.428C586.027 675.704 586.572 673.707 586.528 671.68Z" fill="#FFA8A7"/>
<path d="M586.528 667.04C586.528 667.04 586.528 670 586.528 671.68C586.528 673.36 584.544 675.888 579.376 675.712C575.744 675.584 573.216 674.608 573.36 671.616V667.312L586.528 667.04Z" fill="#FFA8A7"/>
<path d="M621.248 651.904C622.176 652.288 622.368 654.08 622.416 657.648C622.416 660.336 622.896 665.056 619.712 665.904C616.528 666.752 611.936 666.16 609.968 663.568C607.536 660.368 605.904 657.488 602.416 653.536C599.376 650.096 596.016 646.88 594.944 642.128C593.92 637.856 594.944 636.032 597.856 634.88C600.768 633.728 603.44 634.672 607.456 638.08C608.592 638.839 609.804 639.477 611.072 639.984C613.776 640.784 620.32 651.52 621.248 651.904Z" fill="#263238"/>
<path d="M621.328 648.608L621.216 652.976C621.216 652.976 618.288 658.704 610.16 652.976C609.984 652.56 609.264 644.096 609.264 644.096L621.328 648.608Z" fill="#FFA8A7"/>
<path d="M611.104 640C609.836 639.493 608.624 638.855 607.488 638.096C604.288 637.04 597.312 638.256 600.432 643.008C603.01 646.929 606.312 650.323 610.16 653.008C613.84 654.816 615.136 652.576 615.136 652.576L613.824 642.32C613.106 641.349 612.176 640.555 611.104 640Z" fill="#FFA8A7"/>
<path d="M627.2 588.128C626.446 580.437 624.836 572.854 622.4 565.52C622.4 565.52 625.152 546.224 627.312 527.696C632.4 484.24 629.008 483.552 622.864 468.496C622.864 468.496 567.152 461.328 564.832 484.496C561.92 513.296 563.232 569.296 563.728 579.536C564.224 589.776 565.04 594.4 568.08 615.84C570.4 632.16 572.592 667.824 572.592 667.824C579.888 672.032 586.992 667.104 586.992 667.104C586.992 667.104 593.968 623.232 593.808 611.424C593.694 602.693 592.452 594.013 590.112 585.6C590.112 585.6 594.912 538.576 596.048 531.104C596.048 531.104 597.392 546.096 597.888 556.336C598.384 566.576 601.088 576.4 603.6 595.456C605.712 611.984 609.232 646.48 609.232 646.48C616.544 650.688 621.648 648.784 621.648 648.784C621.648 648.784 628.88 602.464 627.2 588.128Z" fill="#FF8500"/>
<g opacity="0.4">
<path d="M627.2 588.128C626.446 580.437 624.836 572.854 622.4 565.52C622.4 565.52 625.152 546.224 627.312 527.696C632.4 484.24 629.008 483.552 622.864 468.496C622.864 468.496 567.152 461.328 564.832 484.496C561.92 513.296 563.232 569.296 563.728 579.536C564.224 589.776 565.04 594.4 568.08 615.84C570.4 632.16 572.592 667.824 572.592 667.824C579.888 672.032 586.992 667.104 586.992 667.104C586.992 667.104 593.968 623.232 593.808 611.424C593.694 602.693 592.452 594.013 590.112 585.6C590.112 585.6 594.912 538.576 596.048 531.104C596.048 531.104 597.392 546.096 597.888 556.336C598.384 566.576 601.088 576.4 603.6 595.456C605.712 611.984 609.232 646.48 609.232 646.48C616.544 650.688 621.648 648.784 621.648 648.784C621.648 648.784 628.88 602.464 627.2 588.128Z" fill="black"/>
</g>
<path opacity="0.15" d="M596.048 531.024L598.736 510.704C606.588 510.689 614.206 508.035 620.368 503.168C620.368 503.168 616.72 510.592 601.92 513.84L599.024 534.752L597.984 557.792C597.493 548.789 596.848 539.867 596.048 531.024Z" fill="black"/>
<path d="M624.816 405.856C622.928 400.256 619.072 396.96 610.544 396.864H609.04C608.432 400.064 598.432 402.848 589.36 399.648C588.112 399.872 583.792 400.352 581.808 400.624L577.472 401.248C570.88 403.408 567.968 414.88 567.328 433.04C566.688 451.2 563.984 490.064 563.984 490.064C563.984 490.064 578.176 497.68 600.56 494.736C620.608 492.096 629.504 480.336 628.816 481.808C625.781 471.795 621.95 462.042 617.36 452.64C627.92 426.768 627.632 414.192 624.816 405.856Z" fill="#455A64"/>
<path d="M589.472 495.44C593.179 495.485 596.884 495.266 600.56 494.784C618.848 492.384 628.032 482.368 628.8 481.76C625.804 471.767 621.978 462.043 617.36 452.688C622.704 439.584 625.264 429.904 626.128 422.448C625.264 427.888 617.232 448.944 606.72 455.248C606.72 455.248 612.64 456.176 617.712 463.136C622.784 470.096 618.624 493.952 589.472 495.44Z" fill="#37474F"/>
<path d="M581.808 400.672C573.072 401.776 566.16 403.6 562.336 411.872C555.936 426 548.88 437.6 543.792 443.056C538.352 448.88 516.048 459.056 511.024 458.304C506 457.552 500.992 451.712 498.4 453.2C495.808 454.688 500.608 460.304 500.288 461.568C499.968 462.832 490.864 462.16 486.56 459.12C482.256 456.08 480.656 462.32 486.224 468.88C491.792 475.44 502.224 475.92 513.632 473.68C525.04 471.44 546.464 465.408 555.232 458.224C565.808 449.52 569.408 442.928 573.904 435.12C590.144 418.352 581.808 400.672 581.808 400.672Z" fill="#FFA8A7"/>
</svg>
